<svg xmlns="http://www.w3.org/2000/svg" width="63" height="63" viewBox="0 0 63 63"><g transform="translate(-65 -204)"><path d="M16,0H47A16,16,0,0,1,63,16V47A16,16,0,0,1,47,63H16A16,16,0,0,1,0,47V16A16,16,0,0,1,16,0Z" transform="translate(65 204)" fill="#1a1919"/><path d="M7.051,31.5H.52V10.47H7.051ZM3.782,7.6A3.8,3.8,0,1,1,7.564,3.783,3.814,3.814,0,0,1,3.782,7.6ZM31.493,31.5H24.976V21.263c0-2.44-.049-5.569-3.4-5.569-3.4,0-3.916,2.651-3.916,5.393V31.5H11.142V10.47h6.263v2.869H17.5a6.862,6.862,0,0,1,6.179-3.4c6.609,0,7.824,4.352,7.824,10.005V31.5Z" transform="translate(81 219.999)" fill="#fff"/></g></svg>